<?xml version="1.0" standalone="no"?>
<!DOCTYPE svg PUBLIC "-//W3C//DTD SVG 20010904//EN"
 "http://www.w3.org/TR/2001/REC-SVG-20010904/DTD/svg10.dtd">
<svg version="1.0" xmlns="http://www.w3.org/2000/svg"
 width="32.000000pt" height="28.000000pt" viewBox="0 0 32.000000 28.000000"
 preserveAspectRatio="xMidYMid meet">

<g transform="translate(0.000000,28.000000) scale(0.100000,-0.100000)"
fill="#000000" stroke="none">
<path d="M63 260 c-48 -20 -71 -136 -38 -200 21 -40 89 -64 159 -57 99 10 132
52 124 158 -4 52 -9 66 -32 86 -24 20 -37 23 -109 22 -45 0 -92 -4 -104 -9z
m97 -20 c16 -16 18 -24 9 -50 -11 -31 -52 -70 -75 -70 -23 0 -44 31 -44 63 0
40 9 53 40 66 37 14 48 13 70 -9z m126 -46 c21 -51 -2 -144 -36 -144 -15 0
-18 11 -17 90 0 81 2 90 19 90 12 0 24 -13 34 -36z"/>
</g>
</svg>
